HIERARCHY
ROOT root
{
  OFFSET 0.000000 0.000000 0.000000
  CHANNELS 6 Xposition Yposition Zposition Zrotation Yrotation Xrotation
  JOINT lhipjoint
  {
    OFFSET 0.000000 0.000000 0.000000
    CHANNELS 3 Zrotation Yrotation Xrotation
    JOINT lfemur
    {
      OFFSET 0.079867 -0.104186 0.044249
      CHANNELS 3 Zrotation Yrotation Xrotation
      JOINT ltibia
      {
        OFFSET 0.145649 -0.400168 0.000000
        CHANNELS 3 Zrotation Yrotation Xrotation
        JOINT lfoot
        {
          OFFSET 0.149419 -0.410526 0.000000
          CHANNELS 3 Zrotation Yrotation Xrotation
          JOINT ltoes
          {
            OFFSET 0.011694 -0.032129 0.124324
            CHANNELS 3 Zrotation Yrotation Xrotation
            End Site
            {
              OFFSET 0.000000 -0.000000 0.064484
            }
          }
        }
      }
    }
  }
  JOINT rhipjoint
  {
    OFFSET 0.000000 0.000000 0.000000
    CHANNELS 3 Zrotation Yrotation Xrotation
    JOINT rfemur
    {
      OFFSET -0.079333 -0.104186 0.044249
      CHANNELS 3 Zrotation Yrotation Xrotation
      JOINT rtibia
      {
        OFFSET -0.144821 -0.397891 0.000000
        CHANNELS 3 Zrotation Yrotation Xrotation
        JOINT rfoot
        {
          OFFSET -0.145612 -0.400066 0.000000
          CHANNELS 3 Zrotation Yrotation Xrotation
          JOINT rtoes
          {
            OFFSET -0.015073 -0.041413 0.124638
            CHANNELS 3 Zrotation Yrotation Xrotation
            End Site
            {
              OFFSET -0.000000 -0.000000 0.065614
            }
          }
        }
      }
    }
  }
  JOINT lowerback
  {
    OFFSET 0.000000 0.000000 0.000000
    CHANNELS 3 Zrotation Yrotation Xrotation
    JOINT upperback
    {
      OFFSET -0.002647 0.115822 -0.003961
      CHANNELS 3 Zrotation Yrotation Xrotation
      JOINT thorax
      {
        OFFSET 0.002306 0.115858 0.000451
        CHANNELS 3 Zrotation Yrotation Xrotation
        JOINT lowerneck
        {
          OFFSET 0.003530 0.115814 0.002237
          CHANNELS 3 Zrotation Yrotation Xrotation
          JOINT upperneck
          {
            OFFSET -0.002022 0.102161 0.010894
            CHANNELS 3 Zrotation Yrotation Xrotation
            JOINT head
            {
              OFFSET 0.000537 0.101710 -0.020540
              CHANNELS 3 Zrotation Yrotation Xrotation
              End Site
              {
                OFFSET 0.000222 0.104457 -0.008181
              }
            }
          }
        }
        JOINT lclavicle
        {
          OFFSET 0.003530 0.115814 0.002237
          CHANNELS 3 Zrotation Yrotation Xrotation
          JOINT lhumerus
          {
            OFFSET 0.200504 0.078867 -0.007715
            CHANNELS 3 Zrotation Yrotation Xrotation
            JOINT lradius
            {
              OFFSET 0.290411 -0.000000 -0.000000
              CHANNELS 3 Zrotation Yrotation Xrotation
              JOINT lwrist
              {
                OFFSET 0.197920 -0.000000 0.000000
                CHANNELS 3 Zrotation Yrotation Xrotation
                End Site
                {
                  OFFSET 0.098960 -0.000000 0.000000
                }
              }
            }
          }
        }
        JOINT rclavicle
        {
          OFFSET 0.003530 0.115814 0.002237
          CHANNELS 3 Zrotation Yrotation Xrotation
          JOINT rhumerus
          {
            OFFSET -0.172984 0.091039 -0.016263
            CHANNELS 3 Zrotation Yrotation Xrotation
            JOINT rradius
            {
              OFFSET -0.295317 -0.000000 -0.000000
              CHANNELS 3 Zrotation Yrotation Xrotation
              JOINT rwrist
              {
                OFFSET -0.206384 -0.000000 0.000000
                CHANNELS 3 Zrotation Yrotation Xrotation
                End Site
                {
                  OFFSET -0.103192 -0.000000 0.000000
                }
              }
            }
          }
        }
      }
    }
  }
}
MOTION
Frames: 8
Frame Time: 0.04166667
0.00000 0.83043 0.00000 -178.58200 -26.08790 -157.83900 0.00000 -0.00000 0.00000 -6.01125 -6.87958 -74.91961 21.31022 19.95879 93.83335 0.25630 -8.16914 -9.96242 0.60584 -4.98220 -13.85782 0.00000 -0.00000 0.00000 24.00232 -6.49618 -9.45051 -5.23288 -13.64135 41.81932 -1.97643 -6.72273 -29.66169 -7.52600 15.75930 -50.83679 3.07884 3.90483 17.08290 -1.29742 5.63079 -0.91331 -4.57000 2.44896 -10.15010 -6.90029 -5.64718 -15.93630 -4.00469 -5.66595 13.65900 -0.80178 -3.52838 6.89215 0.00000 0.00000 0.00000 -63.02473 35.59593 11.01934 49.96671 -52.98206 -26.14758 -0.00000 0.00000 -8.88301 0.00000 0.00000 0.00000 68.16775 15.93419 46.59018 -112.47522 58.00255 -79.33358 0.00000 -0.00000 -0.83366
0.00000 0.83816 0.00000 -177.70300 -34.20790 -160.19600 0.00000 -0.00000 0.00000 -7.19327 -10.77617 -81.26611 16.12107 19.63537 78.59221 0.14644 -10.51802 -9.50524 0.87734 -5.97150 -16.70176 0.00000 -0.00000 0.00000 28.58246 -12.11496 6.11694 -1.90176 -8.65837 24.73238 0.08063 -5.03129 -1.97000 -5.49675 13.92227 -42.92694 2.36923 4.07007 14.99620 -2.43226 5.50450 0.34820 -5.08518 2.49904 -7.55165 -9.49713 -7.23914 -13.20980 -0.70309 -8.03708 14.98800 0.46214 -4.51678 7.14077 -0.00000 -0.00000 0.00000 -53.72929 39.84250 11.81657 63.19195 -57.10219 -37.00940 -0.00000 0.00000 -15.23530 -0.00000 -0.00000 0.00000 61.95387 12.54991 41.26364 -121.39322 55.92711 -86.81557 0.00000 0.00000 3.42085
0.00000 0.84865 0.00000 -174.67400 -41.90950 -161.48900 0.00000 -0.00000 0.00000 -12.72942 -12.90592 -85.37902 9.82933 17.31276 58.91641 -0.34519 -11.08846 -0.18268 0.52980 -4.66428 -12.95345 0.00000 -0.00000 0.00000 34.94651 -12.47712 7.29524 -1.53287 -7.81652 22.15818 -1.86037 -1.34200 25.42278 -4.84627 13.20855 -40.15425 1.97820 3.95784 14.88620 -3.16089 5.14890 1.62546 -5.48031 2.35965 -6.11756 -10.86200 -8.14646 -12.11500 2.37045 -9.64616 16.24800 1.49462 -5.10210 7.65961 0.00000 -0.00000 0.00000 -53.80484 39.20576 6.81803 80.62850 -59.66553 -51.89316 -0.00000 0.00000 -12.83850 0.00000 -0.00000 0.00000 61.87249 9.01123 37.04218 -111.30000 58.21434 -78.33575 0.00000 -0.00000 -3.81924
0.00000 0.85762 0.00000 -172.17800 -46.98900 -165.42900 0.00000 -0.00000 0.00000 -20.34026 -13.03736 -82.82526 5.97178 14.40094 44.86834 0.19073 -5.97530 12.54261 0.37943 -3.95599 -10.95289 0.00000 -0.00000 0.00000 38.02176 -14.71426 -4.13978 -6.74689 -15.11500 47.91042 -0.40514 -2.41101 11.43287 -5.69155 14.12262 -43.73087 0.88050 4.18017 20.46800 -3.62327 4.77388 4.99549 -5.55604 2.07067 -5.57649 -12.39830 -9.11899 -9.91827 4.98402 -11.25100 13.39440 2.51270 -5.70362 6.70338 0.00000 -0.00000 0.00000 -62.51641 33.52442 -0.00542 101.69588 -59.47675 -70.11113 -0.00000 0.00000 -11.97820 0.00000 -0.00000 0.00000 65.51002 8.99944 31.82654 -85.83650 59.93440 -56.39510 0.00000 -0.00000 -6.76800
0.00000 0.85131 0.00000 -167.32100 -50.71230 -172.79900 0.00000 -0.00000 0.00000 -19.73758 -13.32426 -79.14599 6.18439 14.60468 45.71732 0.57487 1.85022 13.80669 0.38716 -3.99564 -11.06440 0.00000 -0.00000 0.00000 38.98471 -16.19037 -17.85785 -14.94682 -19.37645 75.07647 0.03528 -5.66243 2.81426 -4.26912 12.51017 -37.56150 1.16576 4.67530 27.64750 -2.70374 4.73165 8.96101 -5.04588 1.80323 -4.86153 -13.00990 -9.41895 -7.56394 6.74291 -11.94580 10.22520 3.23460 -5.95289 5.50893 -0.00000 0.00000 0.00000 -73.75157 26.03442 0.35401 122.73384 -55.53632 -87.92349 -0.00000 0.00000 -12.05850 -0.00000 0.00000 0.00000 66.61523 13.08348 28.59337 -56.01225 55.15012 -31.04505 0.00000 -0.00000 -16.16370
0.00000 0.82184 0.00000 -162.51900 -54.53030 -178.22200 0.00000 -0.00000 0.00000 -16.09180 -14.53754 -77.57125 8.50459 16.47813 54.36050 0.33299 -5.12183 13.99468 2.53681 9.90452 28.66810 0.00000 -0.00000 0.00000 37.01406 -14.88108 -35.35678 -22.26225 -19.87685 96.62744 0.19308 -10.36879 -11.11826 -2.78289 10.33501 -30.06854 1.59872 4.52680 34.19620 -2.27796 3.96877 11.19350 -4.49351 1.20295 -4.77603 -13.02800 -9.83306 -3.80013 9.53665 -12.93730 4.95060 4.27323 -6.37984 3.55972 0.00000 0.00000 0.00000 -79.25461 19.82530 10.72972 137.18227 -49.65347 -99.43827 -0.00000 0.00000 -8.16678 0.00000 0.00000 0.00000 69.56513 17.72042 24.05804 -36.94096 46.14939 -16.19745 0.00000 -0.00000 -17.40760
0.00000 0.78477 0.00000 -166.54300 -61.35070 -176.05200 0.00000 -0.00000 0.00000 -16.40808 -17.70547 -79.81800 13.34589 18.90351 70.19643 -0.07725 -5.56884 -0.74119 2.83821 10.42843 30.37555 0.00000 -0.00000 0.00000 24.43117 -14.78196 -54.05396 -26.00813 -19.11157 107.82033 0.09382 -15.86454 -21.55328 -0.96662 6.25969 -17.53980 -0.92721 4.01258 42.75220 -1.19982 1.74207 12.49050 -1.38322 -0.17535 -6.23337 -14.37160 -10.60320 -2.38027 11.74450 -13.97250 0.60598 5.21929 -6.92881 2.40653 -0.00000 -0.00000 0.00000 -81.50027 12.17372 25.67665 143.12275 -46.10701 -103.84848 -0.00000 -0.00000 5.20324 -0.00000 -0.00000 0.00000 69.85805 19.28450 18.39487 -28.86138 39.89722 -10.67169 0.00000 -0.00000 -14.92440
0.00000 0.74883 0.00000 -164.64400 -70.01810 -178.23100 0.00000 -0.00000 0.00000 -12.02652 -17.40725 -84.31325 18.18328 19.92068 84.68153 -0.21581 -14.29870 -7.28549 2.79099 10.34877 30.11369 0.00000 -0.00000 0.00000 10.18439 -14.37070 -66.39616 -24.23792 -19.56384 102.47796 -0.22730 -17.85687 -27.15365 -0.52512 4.64394 -12.89575 0.28986 1.58963 53.12970 0.55281 -0.96567 11.74780 1.04060 -1.63539 -7.78502 -14.95430 -10.71860 -0.34460 15.02460 -14.09830 -5.57790 6.58400 -7.15291 0.59221 -0.00000 -0.00000 0.00000 -78.55358 3.09797 35.78001 147.87206 -42.64894 -107.17258 -0.00000 -0.00000 9.62736 -0.00000 -0.00000 0.00000 70.07809 21.23374 15.06806 -24.97676 36.18023 -8.27618 0.00000 -0.00000 -12.27140
